<?xml version="1.0" encoding="utf-8" standalone="no"?>
<!DOCTYPE svg PUBLIC "-//W3C//DTD SVG 1.1//EN"
  "http://www.w3.org/Graphics/SVG/1.1/DTD/svg11.dtd">
<svg xmlns:xlink="http://www.w3.org/1999/xlink" width="576pt" height="432pt" viewBox="0 0 576 432" xmlns="http://www.w3.org/2000/svg" version="1.1">
 <metadata>
  <rdf:RDF xmlns:dc="http://purl.org/dc/elements/1.1/" xmlns:cc="http://creativecommons.org/ns#" xmlns:rdf="http://www.w3.org/1999/02/22-rdf-syntax-ns#">
   <cc:Work>
    <dc:type rdf:resource="http://purl.org/dc/dcmitype/StillImage"/>
    <dc:date>2026-01-20T16:24:38.300298</dc:date>
    <dc:format>image/svg+xml</dc:format>
    <dc:creator>
     <cc:Agent>
      <dc:title>Matplotlib v3.5.1, https://matplotlib.org/</dc:title>
     </cc:Agent>
    </dc:creator>
   </cc:Work>
  </rdf:RDF>
 </metadata>
 <defs>
  <style type="text/css">*{stroke-linejoin: round; stroke-linecap: butt}</style>
 </defs>
 <g id="figure_1">
  <g id="patch_1">
   <path d="M 0 432 
L 576 432 
L 576 0 
L 0 0 
L 0 432 
z
" style="fill: none"/>
  </g>
  <g id="axes_1">
   <g id="patch_2">
    <path d="M 94.3 367.2 
L 565.2 367.2 
L 565.2 10.8 
L 94.3 10.8 
z
" style="fill: #ffffff"/>
   </g>
   <g id="PathCollection_1">
    <defs>
     <path id="mc7ab8606c3" d="M 0 3 
C 0.795609 3 1.55874 2.683901 2.12132 2.12132 
C 2.683901 1.55874 3 0.795609 3 0 
C 3 -0.795609 2.683901 -1.55874 2.12132 -2.12132 
C 1.55874 -2.683901 0.795609 -3 0 -3 
C -0.795609 -3 -1.55874 -2.683901 -2.12132 -2.12132 
C -2.683901 -1.55874 -3 -0.795609 -3 0 
C -3 0.795609 -2.683901 1.55874 -2.12132 2.12132 
C -1.55874 2.683901 -0.795609 3 0 3 
z
" style="stroke: #ffffff; stroke-width: 0.48"/>
    </defs>
    <g clip-path="url(#p248f7dadda)">
     <use xlink:href="#mc7ab8606c3" x="543.795455" y="351" style="fill: #0000ff; stroke: #ffffff; stroke-width: 0.48"/>
     <use xlink:href="#mc7ab8606c3" x="258.401515" y="240.532201" style="fill: #0000ff; stroke: #ffffff; stroke-width: 0.48"/>
     <use xlink:href="#mc7ab8606c3" x="543.795455" y="274.710413" style="fill: #0000ff; stroke: #ffffff; stroke-width: 0.48"/>
     <use xlink:href="#mc7ab8606c3" x="258.401515" y="192.116607" style="fill: #0000ff; stroke: #ffffff; stroke-width: 0.48"/>
     <use xlink:href="#mc7ab8606c3" x="115.704545" y="128.40737" style="fill: #0000ff; stroke: #ffffff; stroke-width: 0.48"/>
     <use xlink:href="#mc7ab8606c3" x="258.401515" y="301.512597" style="fill: #0000ff; stroke: #ffffff; stroke-width: 0.48"/>
     <use xlink:href="#mc7ab8606c3" x="401.098485" y="167.948481" style="fill: #0000ff; stroke: #ffffff; stroke-width: 0.48"/>
     <use xlink:href="#mc7ab8606c3" x="258.401515" y="29.881553" style="fill: #0000ff; stroke: #ffffff; stroke-width: 0.48"/>
     <use xlink:href="#mc7ab8606c3" x="401.098485" y="210.266974" style="fill: #0000ff; stroke: #ffffff; stroke-width: 0.48"/>
     <use xlink:href="#mc7ab8606c3" x="115.704545" y="279.648143" style="fill: #0000ff; stroke: #ffffff; stroke-width: 0.48"/>
     <use xlink:href="#mc7ab8606c3" x="115.704545" y="147.746114" style="fill: #0000ff; stroke: #ffffff; stroke-width: 0.48"/>
     <use xlink:href="#mc7ab8606c3" x="543.795455" y="248.99722" style="fill: #0000ff; stroke: #ffffff; stroke-width: 0.48"/>
     <use xlink:href="#mc7ab8606c3" x="115.704545" y="240.630073" style="fill: #0000ff; stroke: #ffffff; stroke-width: 0.48"/>
     <use xlink:href="#mc7ab8606c3" x="115.704545" y="230.761093" style="fill: #0000ff; stroke: #ffffff; stroke-width: 0.48"/>
     <use xlink:href="#mc7ab8606c3" x="401.098485" y="183.200982" style="fill: #0000ff; stroke: #ffffff; stroke-width: 0.48"/>
     <use xlink:href="#mc7ab8606c3" x="115.704545" y="245.297039" style="fill: #0000ff; stroke: #ffffff; stroke-width: 0.48"/>
     <use xlink:href="#mc7ab8606c3" x="115.704545" y="194.247149" style="fill: #0000ff; stroke: #ffffff; stroke-width: 0.48"/>
     <use xlink:href="#mc7ab8606c3" x="401.098485" y="131.864219" style="fill: #0000ff; stroke: #ffffff; stroke-width: 0.48"/>
     <use xlink:href="#mc7ab8606c3" x="401.098485" y="215.422832" style="fill: #0000ff; stroke: #ffffff; stroke-width: 0.48"/>
     <use xlink:href="#mc7ab8606c3" x="258.401515" y="175.595886" style="fill: #0000ff; stroke: #ffffff; stroke-width: 0.48"/>
     <use xlink:href="#mc7ab8606c3" x="401.098485" y="231.199857" style="fill: #0000ff; stroke: #ffffff; stroke-width: 0.48"/>
     <use xlink:href="#mc7ab8606c3" x="258.401515" y="269.839933" style="fill: #0000ff; stroke: #ffffff; stroke-width: 0.48"/>
     <use xlink:href="#mc7ab8606c3" x="258.401515" y="163.844484" style="fill: #0000ff; stroke: #ffffff; stroke-width: 0.48"/>
     <use xlink:href="#mc7ab8606c3" x="115.704545" y="216.995859" style="fill: #0000ff; stroke: #ffffff; stroke-width: 0.48"/>
     <use xlink:href="#mc7ab8606c3" x="401.098485" y="149.470765" style="fill: #0000ff; stroke: #ffffff; stroke-width: 0.48"/>
     <use xlink:href="#mc7ab8606c3" x="115.704545" y="190.084588" style="fill: #0000ff; stroke: #ffffff; stroke-width: 0.48"/>
     <use xlink:href="#mc7ab8606c3" x="115.704545" y="219.399618" style="fill: #0000ff; stroke: #ffffff; stroke-width: 0.48"/>
     <use xlink:href="#mc7ab8606c3" x="401.098485" y="271.290862" style="fill: #0000ff; stroke: #ffffff; stroke-width: 0.48"/>
     <use xlink:href="#mc7ab8606c3" x="401.098485" y="321.676147" style="fill: #0000ff; stroke: #ffffff; stroke-width: 0.48"/>
     <use xlink:href="#mc7ab8606c3" x="258.401515" y="135.214664" style="fill: #0000ff; stroke: #ffffff; stroke-width: 0.48"/>
     <use xlink:href="#mc7ab8606c3" x="401.098485" y="204.257049" style="fill: #0000ff; stroke: #ffffff; stroke-width: 0.48"/>
     <use xlink:href="#mc7ab8606c3" x="543.795455" y="279.612179" style="fill: #0000ff; stroke: #ffffff; stroke-width: 0.48"/>
     <use xlink:href="#mc7ab8606c3" x="401.098485" y="250.415479" style="fill: #0000ff; stroke: #ffffff; stroke-width: 0.48"/>
     <use xlink:href="#mc7ab8606c3" x="543.795455" y="223.10258" style="fill: #0000ff; stroke: #ffffff; stroke-width: 0.48"/>
     <use xlink:href="#mc7ab8606c3" x="115.704545" y="112.522058" style="fill: #0000ff; stroke: #ffffff; stroke-width: 0.48"/>
     <use xlink:href="#mc7ab8606c3" x="258.401515" y="175.079362" style="fill: #0000ff; stroke: #ffffff; stroke-width: 0.48"/>
     <use xlink:href="#mc7ab8606c3" x="115.704545" y="264.527712" style="fill: #0000ff; stroke: #ffffff; stroke-width: 0.48"/>
     <use xlink:href="#mc7ab8606c3" x="115.704545" y="106.559822" style="fill: #0000ff; stroke: #ffffff; stroke-width: 0.48"/>
     <use xlink:href="#mc7ab8606c3" x="401.098485" y="274.465759" style="fill: #0000ff; stroke: #ffffff; stroke-width: 0.48"/>
     <use xlink:href="#mc7ab8606c3" x="115.704545" y="284.291757" style="fill: #0000ff; stroke: #ffffff; stroke-width: 0.48"/>
     <use xlink:href="#mc7ab8606c3" x="115.704545" y="244.305831" style="fill: #0000ff; stroke: #ffffff; stroke-width: 0.48"/>
     <use xlink:href="#mc7ab8606c3" x="115.704545" y="158.447543" style="fill: #0000ff; stroke: #ffffff; stroke-width: 0.48"/>
     <use xlink:href="#mc7ab8606c3" x="115.704545" y="254.803168" style="fill: #0000ff; stroke: #ffffff; stroke-width: 0.48"/>
     <use xlink:href="#mc7ab8606c3" x="115.704545" y="27" style="fill: #0000ff; stroke: #ffffff; stroke-width: 0.48"/>
     <use xlink:href="#mc7ab8606c3" x="401.098485" y="192.673878" style="fill: #0000ff; stroke: #ffffff; stroke-width: 0.48"/>
     <use xlink:href="#mc7ab8606c3" x="258.401515" y="213.462667" style="fill: #0000ff; stroke: #ffffff; stroke-width: 0.48"/>
     <use xlink:href="#mc7ab8606c3" x="258.401515" y="194.88522" style="fill: #0000ff; stroke: #ffffff; stroke-width: 0.48"/>
     <use xlink:href="#mc7ab8606c3" x="401.098485" y="189.076842" style="fill: #0000ff; stroke: #ffffff; stroke-width: 0.48"/>
     <use xlink:href="#mc7ab8606c3" x="258.401515" y="163.958548" style="fill: #0000ff; stroke: #ffffff; stroke-width: 0.48"/>
     <use xlink:href="#mc7ab8606c3" x="258.401515" y="165.78063" style="fill: #0000ff; stroke: #ffffff; stroke-width: 0.48"/>
     <use xlink:href="#mc7ab8606c3" x="115.704545" y="270.490456" style="fill: #0000ff; stroke: #ffffff; stroke-width: 0.48"/>
     <use xlink:href="#mc7ab8606c3" x="401.098485" y="234.178466" style="fill: #0000ff; stroke: #ffffff; stroke-width: 0.48"/>
     <use xlink:href="#mc7ab8606c3" x="258.401515" y="275.448412" style="fill: #0000ff; stroke: #ffffff; stroke-width: 0.48"/>
     <use xlink:href="#mc7ab8606c3" x="401.098485" y="136.406053" style="fill: #0000ff; stroke: #ffffff; stroke-width: 0.48"/>
     <use xlink:href="#mc7ab8606c3" x="115.704545" y="276.061856" style="fill: #0000ff; stroke: #ffffff; stroke-width: 0.48"/>
     <use xlink:href="#mc7ab8606c3" x="401.098485" y="273.25992" style="fill: #0000ff; stroke: #ffffff; stroke-width: 0.48"/>
     <use xlink:href="#mc7ab8606c3" x="401.098485" y="270.061617" style="fill: #0000ff; stroke: #ffffff; stroke-width: 0.48"/>
     <use xlink:href="#mc7ab8606c3" x="115.704545" y="277.508271" style="fill: #0000ff; stroke: #ffffff; stroke-width: 0.48"/>
     <use xlink:href="#mc7ab8606c3" x="115.704545" y="162.802851" style="fill: #0000ff; stroke: #ffffff; stroke-width: 0.48"/>
     <use xlink:href="#mc7ab8606c3" x="401.098485" y="274.76143" style="fill: #0000ff; stroke: #ffffff; stroke-width: 0.48"/>
     <use xlink:href="#mc7ab8606c3" x="258.401515" y="168.183048" style="fill: #0000ff; stroke: #ffffff; stroke-width: 0.48"/>
     <use xlink:href="#mc7ab8606c3" x="258.401515" y="177.102155" style="fill: #0000ff; stroke: #ffffff; stroke-width: 0.48"/>
     <use xlink:href="#mc7ab8606c3" x="401.098485" y="223.258415" style="fill: #0000ff; stroke: #ffffff; stroke-width: 0.48"/>
     <use xlink:href="#mc7ab8606c3" x="401.098485" y="196.225675" style="fill: #0000ff; stroke: #ffffff; stroke-width: 0.48"/>
     <use xlink:href="#mc7ab8606c3" x="401.098485" y="178.470915" style="fill: #0000ff; stroke: #ffffff; stroke-width: 0.48"/>
     <use xlink:href="#mc7ab8606c3" x="258.401515" y="207.558855" style="fill: #0000ff; stroke: #ffffff; stroke-width: 0.48"/>
     <use xlink:href="#mc7ab8606c3" x="115.704545" y="234.802848" style="fill: #0000ff; stroke: #ffffff; stroke-width: 0.48"/>
     <use xlink:href="#mc7ab8606c3" x="258.401515" y="159.349168" style="fill: #0000ff; stroke: #ffffff; stroke-width: 0.48"/>
     <use xlink:href="#mc7ab8606c3" x="401.098485" y="235.24124" style="fill: #0000ff; stroke: #ffffff; stroke-width: 0.48"/>
     <use xlink:href="#mc7ab8606c3" x="115.704545" y="251.690514" style="fill: #0000ff; stroke: #ffffff; stroke-width: 0.48"/>
     <use xlink:href="#mc7ab8606c3" x="543.795455" y="259.296005" style="fill: #0000ff; stroke: #ffffff; stroke-width: 0.48"/>
    </g>
   </g>
   <g id="PathCollection_2">
    <defs>
     <path id="m1b55d6ce2a" d="M 0 3 
C 0.795609 3 1.55874 2.683901 2.12132 2.12132 
C 2.683901 1.55874 3 0.795609 3 0 
C 3 -0.795609 2.683901 -1.55874 2.12132 -2.12132 
C 1.55874 -2.683901 0.795609 -3 0 -3 
C -0.795609 -3 -1.55874 -2.683901 -2.12132 -2.12132 
C -2.683901 -1.55874 -3 -0.795609 -3 0 
C -3 0.795609 -2.683901 1.55874 -2.12132 2.12132 
C -1.55874 2.683901 -0.795609 3 0 3 
z
" style="stroke: #ffffff; stroke-width: 0.48"/>
    </defs>
    <g clip-path="url(#p248f7dadda)">
     <use xlink:href="#m1b55d6ce2a" x="401.098485" y="170.826066" style="fill: #ffa500; stroke: #ffffff; stroke-width: 0.48"/>
     <use xlink:href="#m1b55d6ce2a" x="115.704545" y="253.853581" style="fill: #ffa500; stroke: #ffffff; stroke-width: 0.48"/>
     <use xlink:href="#m1b55d6ce2a" x="115.704545" y="204.895423" style="fill: #ffa500; stroke: #ffffff; stroke-width: 0.48"/>
     <use xlink:href="#m1b55d6ce2a" x="115.704545" y="252.749017" style="fill: #ffa500; stroke: #ffffff; stroke-width: 0.48"/>
     <use xlink:href="#m1b55d6ce2a" x="258.401515" y="177.746411" style="fill: #ffa500; stroke: #ffffff; stroke-width: 0.48"/>
     <use xlink:href="#m1b55d6ce2a" x="115.704545" y="205.948182" style="fill: #ffa500; stroke: #ffffff; stroke-width: 0.48"/>
     <use xlink:href="#m1b55d6ce2a" x="115.704545" y="152.550993" style="fill: #ffa500; stroke: #ffffff; stroke-width: 0.48"/>
     <use xlink:href="#m1b55d6ce2a" x="258.401515" y="279.318757" style="fill: #ffa500; stroke: #ffffff; stroke-width: 0.48"/>
     <use xlink:href="#m1b55d6ce2a" x="401.098485" y="199.791203" style="fill: #ffa500; stroke: #ffffff; stroke-width: 0.48"/>
     <use xlink:href="#m1b55d6ce2a" x="401.098485" y="256.775435" style="fill: #ffa500; stroke: #ffffff; stroke-width: 0.48"/>
     <use xlink:href="#m1b55d6ce2a" x="258.401515" y="155.951569" style="fill: #ffa500; stroke: #ffffff; stroke-width: 0.48"/>
     <use xlink:href="#m1b55d6ce2a" x="258.401515" y="175.355672" style="fill: #ffa500; stroke: #ffffff; stroke-width: 0.48"/>
     <use xlink:href="#m1b55d6ce2a" x="115.704545" y="220.936155" style="fill: #ffa500; stroke: #ffffff; stroke-width: 0.48"/>
     <use xlink:href="#m1b55d6ce2a" x="115.704545" y="38.067023" style="fill: #ffa500; stroke: #ffffff; stroke-width: 0.48"/>
     <use xlink:href="#m1b55d6ce2a" x="115.704545" y="230.027881" style="fill: #ffa500; stroke: #ffffff; stroke-width: 0.48"/>
     <use xlink:href="#m1b55d6ce2a" x="115.704545" y="271.781502" style="fill: #ffa500; stroke: #ffffff; stroke-width: 0.48"/>
     <use xlink:href="#m1b55d6ce2a" x="258.401515" y="287.921457" style="fill: #ffa500; stroke: #ffffff; stroke-width: 0.48"/>
     <use xlink:href="#m1b55d6ce2a" x="401.098485" y="237.736044" style="fill: #ffa500; stroke: #ffffff; stroke-width: 0.48"/>
     <use xlink:href="#m1b55d6ce2a" x="115.704545" y="68.945804" style="fill: #ffa500; stroke: #ffffff; stroke-width: 0.48"/>
     <use xlink:href="#m1b55d6ce2a" x="115.704545" y="186.028396" style="fill: #ffa500; stroke: #ffffff; stroke-width: 0.48"/>
     <use xlink:href="#m1b55d6ce2a" x="258.401515" y="321.155748" style="fill: #ffa500; stroke: #ffffff; stroke-width: 0.48"/>
     <use xlink:href="#m1b55d6ce2a" x="258.401515" y="245.626214" style="fill: #ffa500; stroke: #ffffff; stroke-width: 0.48"/>
     <use xlink:href="#m1b55d6ce2a" x="115.704545" y="308.805874" style="fill: #ffa500; stroke: #ffffff; stroke-width: 0.48"/>
     <use xlink:href="#m1b55d6ce2a" x="115.704545" y="96.801406" style="fill: #ffa500; stroke: #ffffff; stroke-width: 0.48"/>
     <use xlink:href="#m1b55d6ce2a" x="401.098485" y="133.494752" style="fill: #ffa500; stroke: #ffffff; stroke-width: 0.48"/>
     <use xlink:href="#m1b55d6ce2a" x="258.401515" y="289.509336" style="fill: #ffa500; stroke: #ffffff; stroke-width: 0.48"/>
     <use xlink:href="#m1b55d6ce2a" x="115.704545" y="71.284474" style="fill: #ffa500; stroke: #ffffff; stroke-width: 0.48"/>
     <use xlink:href="#m1b55d6ce2a" x="258.401515" y="276.868075" style="fill: #ffa500; stroke: #ffffff; stroke-width: 0.48"/>
     <use xlink:href="#m1b55d6ce2a" x="258.401515" y="246.871896" style="fill: #ffa500; stroke: #ffffff; stroke-width: 0.48"/>
     <use xlink:href="#m1b55d6ce2a" x="115.704545" y="268.616319" style="fill: #ffa500; stroke: #ffffff; stroke-width: 0.48"/>
     <use xlink:href="#m1b55d6ce2a" x="115.704545" y="287.027248" style="fill: #ffa500; stroke: #ffffff; stroke-width: 0.48"/>
     <use xlink:href="#m1b55d6ce2a" x="115.704545" y="291.37844" style="fill: #ffa500; stroke: #ffffff; stroke-width: 0.48"/>
     <use xlink:href="#m1b55d6ce2a" x="401.098485" y="271.290862" style="fill: #ffa500; stroke: #ffffff; stroke-width: 0.48"/>
     <use xlink:href="#m1b55d6ce2a" x="258.401515" y="245.988681" style="fill: #ffa500; stroke: #ffffff; stroke-width: 0.48"/>
     <use xlink:href="#m1b55d6ce2a" x="115.704545" y="222.415232" style="fill: #ffa500; stroke: #ffffff; stroke-width: 0.48"/>
     <use xlink:href="#m1b55d6ce2a" x="401.098485" y="256.348408" style="fill: #ffa500; stroke: #ffffff; stroke-width: 0.48"/>
     <use xlink:href="#m1b55d6ce2a" x="401.098485" y="241.231653" style="fill: #ffa500; stroke: #ffffff; stroke-width: 0.48"/>
     <use xlink:href="#m1b55d6ce2a" x="258.401515" y="256.037507" style="fill: #ffa500; stroke: #ffffff; stroke-width: 0.48"/>
     <use xlink:href="#m1b55d6ce2a" x="115.704545" y="152.434861" style="fill: #ffa500; stroke: #ffffff; stroke-width: 0.48"/>
     <use xlink:href="#m1b55d6ce2a" x="258.401515" y="207.52017" style="fill: #ffa500; stroke: #ffffff; stroke-width: 0.48"/>
     <use xlink:href="#m1b55d6ce2a" x="115.704545" y="225.702777" style="fill: #ffa500; stroke: #ffffff; stroke-width: 0.48"/>
     <use xlink:href="#m1b55d6ce2a" x="115.704545" y="264.895782" style="fill: #ffa500; stroke: #ffffff; stroke-width: 0.48"/>
     <use xlink:href="#m1b55d6ce2a" x="115.704545" y="130.065064" style="fill: #ffa500; stroke: #ffffff; stroke-width: 0.48"/>
     <use xlink:href="#m1b55d6ce2a" x="258.401515" y="186.604747" style="fill: #ffa500; stroke: #ffffff; stroke-width: 0.48"/>
     <use xlink:href="#m1b55d6ce2a" x="115.704545" y="187.108445" style="fill: #ffa500; stroke: #ffffff; stroke-width: 0.48"/>
     <use xlink:href="#m1b55d6ce2a" x="115.704545" y="192.603437" style="fill: #ffa500; stroke: #ffffff; stroke-width: 0.48"/>
     <use xlink:href="#m1b55d6ce2a" x="115.704545" y="191.306067" style="fill: #ffa500; stroke: #ffffff; stroke-width: 0.48"/>
     <use xlink:href="#m1b55d6ce2a" x="543.795455" y="185.255866" style="fill: #ffa500; stroke: #ffffff; stroke-width: 0.48"/>
     <use xlink:href="#m1b55d6ce2a" x="258.401515" y="266.780129" style="fill: #ffa500; stroke: #ffffff; stroke-width: 0.48"/>
     <use xlink:href="#m1b55d6ce2a" x="115.704545" y="126.042108" style="fill: #ffa500; stroke: #ffffff; stroke-width: 0.48"/>
     <use xlink:href="#m1b55d6ce2a" x="401.098485" y="211.534817" style="fill: #ffa500; stroke: #ffffff; stroke-width: 0.48"/>
     <use xlink:href="#m1b55d6ce2a" x="401.098485" y="159.346075" style="fill: #ffa500; stroke: #ffffff; stroke-width: 0.48"/>
     <use xlink:href="#m1b55d6ce2a" x="401.098485" y="249.302562" style="fill: #ffa500; stroke: #ffffff; stroke-width: 0.48"/>
     <use xlink:href="#m1b55d6ce2a" x="115.704545" y="220.743144" style="fill: #ffa500; stroke: #ffffff; stroke-width: 0.48"/>
     <use xlink:href="#m1b55d6ce2a" x="258.401515" y="101.639552" style="fill: #ffa500; stroke: #ffffff; stroke-width: 0.48"/>
     <use xlink:href="#m1b55d6ce2a" x="115.704545" y="281.551738" style="fill: #ffa500; stroke: #ffffff; stroke-width: 0.48"/>
     <use xlink:href="#m1b55d6ce2a" x="543.795455" y="272.499354" style="fill: #ffa500; stroke: #ffffff; stroke-width: 0.48"/>
     <use xlink:href="#m1b55d6ce2a" x="115.704545" y="135.379186" style="fill: #ffa500; stroke: #ffffff; stroke-width: 0.48"/>
     <use xlink:href="#m1b55d6ce2a" x="258.401515" y="94.764089" style="fill: #ffa500; stroke: #ffffff; stroke-width: 0.48"/>
     <use xlink:href="#m1b55d6ce2a" x="258.401515" y="153.899121" style="fill: #ffa500; stroke: #ffffff; stroke-width: 0.48"/>
     <use xlink:href="#m1b55d6ce2a" x="258.401515" y="223.381097" style="fill: #ffa500; stroke: #ffffff; stroke-width: 0.48"/>
     <use xlink:href="#m1b55d6ce2a" x="258.401515" y="246.597896" style="fill: #ffa500; stroke: #ffffff; stroke-width: 0.48"/>
     <use xlink:href="#m1b55d6ce2a" x="258.401515" y="271.066501" style="fill: #ffa500; stroke: #ffffff; stroke-width: 0.48"/>
     <use xlink:href="#m1b55d6ce2a" x="543.795455" y="215.051161" style="fill: #ffa500; stroke: #ffffff; stroke-width: 0.48"/>
     <use xlink:href="#m1b55d6ce2a" x="115.704545" y="243.951259" style="fill: #ffa500; stroke: #ffffff; stroke-width: 0.48"/>
     <use xlink:href="#m1b55d6ce2a" x="115.704545" y="269.77766" style="fill: #ffa500; stroke: #ffffff; stroke-width: 0.48"/>
     <use xlink:href="#m1b55d6ce2a" x="401.098485" y="225.742749" style="fill: #ffa500; stroke: #ffffff; stroke-width: 0.48"/>
     <use xlink:href="#m1b55d6ce2a" x="401.098485" y="245.378637" style="fill: #ffa500; stroke: #ffffff; stroke-width: 0.48"/>
     <use xlink:href="#m1b55d6ce2a" x="258.401515" y="229.285683" style="fill: #ffa500; stroke: #ffffff; stroke-width: 0.48"/>
     <use xlink:href="#m1b55d6ce2a" x="115.704545" y="275.108023" style="fill: #ffa500; stroke: #ffffff; stroke-width: 0.48"/>
     <use xlink:href="#m1b55d6ce2a" x="115.704545" y="300.47455" style="fill: #ffa500; stroke: #ffffff; stroke-width: 0.48"/>
     <use xlink:href="#m1b55d6ce2a" x="258.401515" y="329.749706" style="fill: #ffa500; stroke: #ffffff; stroke-width: 0.48"/>
     <use xlink:href="#m1b55d6ce2a" x="258.401515" y="94.486321" style="fill: #ffa500; stroke: #ffffff; stroke-width: 0.48"/>
     <use xlink:href="#m1b55d6ce2a" x="115.704545" y="188.70518" style="fill: #ffa500; stroke: #ffffff; stroke-width: 0.48"/>
     <use xlink:href="#m1b55d6ce2a" x="115.704545" y="235.988427" style="fill: #ffa500; stroke: #ffffff; stroke-width: 0.48"/>
     <use xlink:href="#m1b55d6ce2a" x="115.704545" y="161.759301" style="fill: #ffa500; stroke: #ffffff; stroke-width: 0.48"/>
     <use xlink:href="#m1b55d6ce2a" x="258.401515" y="237.833667" style="fill: #ffa500; stroke: #ffffff; stroke-width: 0.48"/>
     <use xlink:href="#m1b55d6ce2a" x="258.401515" y="178.02002" style="fill: #ffa500; stroke: #ffffff; stroke-width: 0.48"/>
     <use xlink:href="#m1b55d6ce2a" x="401.098485" y="179.007413" style="fill: #ffa500; stroke: #ffffff; stroke-width: 0.48"/>
     <use xlink:href="#m1b55d6ce2a" x="115.704545" y="264.221966" style="fill: #ffa500; stroke: #ffffff; stroke-width: 0.48"/>
     <use xlink:href="#m1b55d6ce2a" x="115.704545" y="240.564106" style="fill: #ffa500; stroke: #ffffff; stroke-width: 0.48"/>
     <use xlink:href="#m1b55d6ce2a" x="115.704545" y="292.360791" style="fill: #ffa500; stroke: #ffffff; stroke-width: 0.48"/>
     <use xlink:href="#m1b55d6ce2a" x="115.704545" y="236.770195" style="fill: #ffa500; stroke: #ffffff; stroke-width: 0.48"/>
     <use xlink:href="#m1b55d6ce2a" x="115.704545" y="243.819039" style="fill: #ffa500; stroke: #ffffff; stroke-width: 0.48"/>
     <use xlink:href="#m1b55d6ce2a" x="115.704545" y="196.241031" style="fill: #ffa500; stroke: #ffffff; stroke-width: 0.48"/>
     <use xlink:href="#m1b55d6ce2a" x="115.704545" y="279.237004" style="fill: #ffa500; stroke: #ffffff; stroke-width: 0.48"/>
     <use xlink:href="#m1b55d6ce2a" x="115.704545" y="260.689176" style="fill: #ffa500; stroke: #ffffff; stroke-width: 0.48"/>
     <use xlink:href="#m1b55d6ce2a" x="401.098485" y="77.698933" style="fill: #ffa500; stroke: #ffffff; stroke-width: 0.48"/>
     <use xlink:href="#m1b55d6ce2a" x="115.704545" y="107.806103" style="fill: #ffa500; stroke: #ffffff; stroke-width: 0.48"/>
     <use xlink:href="#m1b55d6ce2a" x="258.401515" y="274.526994" style="fill: #ffa500; stroke: #ffffff; stroke-width: 0.48"/>
     <use xlink:href="#m1b55d6ce2a" x="115.704545" y="228.38198" style="fill: #ffa500; stroke: #ffffff; stroke-width: 0.48"/>
     <use xlink:href="#m1b55d6ce2a" x="258.401515" y="211.977457" style="fill: #ffa500; stroke: #ffffff; stroke-width: 0.48"/>
     <use xlink:href="#m1b55d6ce2a" x="258.401515" y="177.976396" style="fill: #ffa500; stroke: #ffffff; stroke-width: 0.48"/>
     <use xlink:href="#m1b55d6ce2a" x="543.795455" y="291.086558" style="fill: #ffa500; stroke: #ffffff; stroke-width: 0.48"/>
     <use xlink:href="#m1b55d6ce2a" x="258.401515" y="228.589756" style="fill: #ffa500; stroke: #ffffff; stroke-width: 0.48"/>
    </g>
   </g>
   <g id="PolyCollection_1">
    <path d="M 115.704545 171.157894 
L 115.704545 218.9235 
L 120.028696 219.073284 
L 124.352847 219.243913 
L 128.676997 219.370155 
L 133.001148 219.463784 
L 137.325298 219.55436 
L 141.649449 219.62487 
L 145.9736 219.717976 
L 150.29775 219.624167 
L 154.621901 219.90923 
L 158.946051 219.872024 
L 163.270202 220.004185 
L 167.594353 220.195124 
L 171.918503 220.318373 
L 176.242654 220.479407 
L 180.566804 220.541308 
L 184.890955 220.907086 
L 189.215106 221.106514 
L 193.539256 221.30454 
L 197.863407 221.499851 
L 202.187557 221.629396 
L 206.511708 221.742971 
L 210.835859 221.978357 
L 215.160009 222.289488 
L 219.48416 222.301598 
L 223.80831 222.51706 
L 228.132461 222.663413 
L 232.456612 222.931834 
L 236.780762 223.079143 
L 241.104913 223.119506 
L 245.429063 223.431968 
L 249.753214 223.676748 
L 254.077365 223.967036 
L 258.401515 224.265341 
L 262.725666 224.624475 
L 267.049816 225.025864 
L 271.373967 225.132841 
L 275.698118 225.333015 
L 280.022268 225.463223 
L 284.346419 225.617249 
L 288.670569 225.659744 
L 292.99472 226.088662 
L 297.318871 226.783136 
L 301.643021 227.176792 
L 305.967172 227.474376 
L 310.291322 227.878966 
L 314.615473 228.253435 
L 318.939624 228.584271 
L 323.263774 229.049711 
L 327.587925 229.523429 
L 331.912075 229.824584 
L 336.236226 230.440261 
L 340.560376 230.968649 
L 344.884527 231.543948 
L 349.208678 231.957638 
L 353.532828 232.368875 
L 357.856979 232.835563 
L 362.181129 233.305725 
L 366.50528 233.779371 
L 370.829431 234.251929 
L 375.153581 234.826476 
L 379.477732 235.482831 
L 383.801882 236.115243 
L 388.126033 236.661441 
L 392.450184 237.228432 
L 396.774334 237.872457 
L 401.098485 238.59613 
L 405.422635 239.418823 
L 409.746786 240.005922 
L 414.070937 240.637029 
L 418.395087 241.342716 
L 422.719238 242.039157 
L 427.043388 242.696146 
L 431.367539 243.353135 
L 435.69169 244.010125 
L 440.01584 244.818506 
L 444.339991 245.584659 
L 448.664141 246.297614 
L 452.988292 247.004345 
L 457.312443 247.707898 
L 461.636593 248.42271 
L 465.960744 249.188167 
L 470.284894 249.949459 
L 474.609045 250.709924 
L 478.933196 251.459307 
L 483.257346 252.158412 
L 487.581497 252.857517 
L 491.905647 253.556622 
L 496.229798 254.255727 
L 500.553949 254.954832 
L 504.878099 255.709501 
L 509.20225 256.700672 
L 513.5264 257.371173 
L 517.850551 258.131522 
L 522.174702 258.778691 
L 526.498852 259.538129 
L 530.823003 260.334458 
L 535.147153 261.130788 
L 539.471304 261.926161 
L 543.795455 262.719812 
L 543.795455 208.070233 
L 543.795455 208.070233 
L 539.471304 208.085636 
L 535.147153 208.136961 
L 530.823003 208.146721 
L 526.498852 208.126655 
L 522.174702 208.137988 
L 517.850551 208.149322 
L 513.5264 208.160655 
L 509.20225 208.176284 
L 504.878099 208.193886 
L 500.553949 208.211488 
L 496.229798 208.22909 
L 491.905647 208.344416 
L 487.581497 208.483595 
L 483.257346 208.622775 
L 478.933196 208.766294 
L 474.609045 208.882587 
L 470.284894 208.906979 
L 465.960744 208.998252 
L 461.636593 209.048306 
L 457.312443 208.856633 
L 452.988292 208.711302 
L 448.664141 208.478072 
L 444.339991 208.39863 
L 440.01584 208.391437 
L 435.69169 208.138666 
L 431.367539 207.787694 
L 427.043388 207.439053 
L 422.719238 207.235725 
L 418.395087 207.100481 
L 414.070937 207.049033 
L 409.746786 207.023639 
L 405.422635 206.790828 
L 401.098485 206.877959 
L 396.774334 206.723488 
L 392.450184 206.480981 
L 388.126033 206.4868 
L 383.801882 206.189196 
L 379.477732 205.870525 
L 375.153581 205.793761 
L 370.829431 205.536516 
L 366.50528 205.431708 
L 362.181129 205.125807 
L 357.856979 204.73937 
L 353.532828 204.45128 
L 349.208678 203.90886 
L 344.884527 203.4063 
L 340.560376 203.110322 
L 336.236226 202.86733 
L 331.912075 202.622222 
L 327.587925 202.310967 
L 323.263774 201.944214 
L 318.939624 201.467028 
L 314.615473 201.073109 
L 310.291322 200.765398 
L 305.967172 200.466766 
L 301.643021 200.146493 
L 297.318871 199.455592 
L 292.99472 198.726402 
L 288.670569 197.998134 
L 284.346419 197.891806 
L 280.022268 197.21172 
L 275.698118 196.836909 
L 271.373967 196.221476 
L 267.049816 195.687602 
L 262.725666 194.989783 
L 258.401515 194.301929 
L 254.077365 193.699989 
L 249.753214 193.018443 
L 245.429063 192.362902 
L 241.104913 191.81782 
L 236.780762 191.237033 
L 232.456612 190.594737 
L 228.132461 189.80138 
L 223.80831 189.001474 
L 219.48416 188.203281 
L 215.160009 187.446161 
L 210.835859 186.834205 
L 206.511708 186.225586 
L 202.187557 185.616967 
L 197.863407 184.887266 
L 193.539256 184.389617 
L 189.215106 183.780363 
L 184.890955 183.163104 
L 180.566804 182.490735 
L 176.242654 181.954737 
L 171.918503 181.137207 
L 167.594353 180.509399 
L 163.270202 179.943933 
L 158.946051 179.108942 
L 154.621901 178.27395 
L 150.29775 177.413846 
L 145.9736 176.601757 
L 141.649449 175.764181 
L 137.325298 174.926604 
L 133.001148 174.09013 
L 128.676997 173.270561 
L 124.352847 172.566339 
L 120.028696 171.862117 
L 115.704545 171.157894 
z
" clip-path="url(#p248f7dadda)" style="fill: #0000ff; fill-opacity: 0.15"/>
   </g>
   <g id="PolyCollection_2">
    <path d="M 115.704545 195.370486 
L 115.704545 230.803229 
L 120.028696 230.669767 
L 124.352847 230.575219 
L 128.676997 230.493014 
L 133.001148 230.401659 
L 137.325298 230.069282 
L 141.649449 229.664272 
L 145.9736 229.579856 
L 150.29775 229.36095 
L 154.621901 229.150999 
L 158.946051 229.001815 
L 163.270202 228.852437 
L 167.594353 228.762697 
L 171.918503 228.629453 
L 176.242654 228.72695 
L 180.566804 228.752291 
L 184.890955 228.682675 
L 189.215106 228.654083 
L 193.539256 228.816136 
L 197.863407 228.634603 
L 202.187557 228.466616 
L 206.511708 228.489716 
L 210.835859 228.400304 
L 215.160009 228.458443 
L 219.48416 228.574718 
L 223.80831 228.608214 
L 228.132461 228.59471 
L 232.456612 228.546543 
L 236.780762 228.466666 
L 241.104913 228.384451 
L 245.429063 228.415612 
L 249.753214 228.492241 
L 254.077365 228.701707 
L 258.401515 229.103682 
L 262.725666 229.250097 
L 267.049816 229.21872 
L 271.373967 229.180778 
L 275.698118 229.42581 
L 280.022268 229.790913 
L 284.346419 229.916704 
L 288.670569 230.032139 
L 292.99472 230.258399 
L 297.318871 230.262669 
L 301.643021 230.482126 
L 305.967172 230.721455 
L 310.291322 231.014559 
L 314.615473 231.106152 
L 318.939624 231.637372 
L 323.263774 232.122328 
L 327.587925 232.505501 
L 331.912075 232.888177 
L 336.236226 232.97333 
L 340.560376 233.138983 
L 344.884527 233.632266 
L 349.208678 233.77573 
L 353.532828 233.936129 
L 357.856979 234.496809 
L 362.181129 235.035705 
L 366.50528 235.618031 
L 370.829431 236.113514 
L 375.153581 236.465752 
L 379.477732 236.81799 
L 383.801882 237.170227 
L 388.126033 237.522465 
L 392.450184 237.8728 
L 396.774334 238.112993 
L 401.098485 238.576347 
L 405.422635 238.826036 
L 409.746786 239.194029 
L 414.070937 239.430511 
L 418.395087 239.637466 
L 422.719238 240.02475 
L 427.043388 240.594832 
L 431.367539 241.040405 
L 435.69169 241.391856 
L 440.01584 241.725716 
L 444.339991 242.076898 
L 448.664141 242.393933 
L 452.988292 242.804273 
L 457.312443 243.215425 
L 461.636593 243.622976 
L 465.960744 244.030528 
L 470.284894 244.43808 
L 474.609045 244.867266 
L 478.933196 245.256314 
L 483.257346 245.667425 
L 487.581497 246.078107 
L 491.905647 246.562793 
L 496.229798 247.000425 
L 500.553949 247.353125 
L 504.878099 247.967945 
L 509.20225 248.582699 
L 513.5264 249.006495 
L 517.850551 249.393471 
L 522.174702 249.780446 
L 526.498852 250.167421 
L 530.823003 250.681124 
L 535.147153 251.199103 
L 539.471304 251.72016 
L 543.795455 252.244993 
L 543.795455 192.831496 
L 543.795455 192.831496 
L 539.471304 193.154231 
L 535.147153 193.374702 
L 530.823003 193.597277 
L 526.498852 193.819851 
L 522.174702 194.042426 
L 517.850551 194.265001 
L 513.5264 194.487576 
L 509.20225 194.710151 
L 504.878099 194.932725 
L 500.553949 195.1553 
L 496.229798 195.377875 
L 491.905647 195.60045 
L 487.581497 195.823025 
L 483.257346 196.110356 
L 478.933196 196.303378 
L 474.609045 196.48024 
L 470.284894 196.638155 
L 465.960744 196.775645 
L 461.636593 196.913135 
L 457.312443 197.054419 
L 452.988292 197.199242 
L 448.664141 197.596783 
L 444.339991 197.662762 
L 440.01584 197.93332 
L 435.69169 198.121128 
L 431.367539 198.110966 
L 427.043388 198.100804 
L 422.719238 198.173854 
L 418.395087 198.561902 
L 414.070937 199.118306 
L 409.746786 199.111105 
L 405.422635 199.456015 
L 401.098485 199.808889 
L 396.774334 200.161764 
L 392.450184 200.300424 
L 388.126033 200.547736 
L 383.801882 200.900069 
L 379.477732 201.252402 
L 375.153581 201.277726 
L 370.829431 201.592634 
L 366.50528 201.751942 
L 362.181129 202.189895 
L 357.856979 202.40839 
L 353.532828 202.451359 
L 349.208678 202.74605 
L 344.884527 203.066845 
L 340.560376 203.214322 
L 336.236226 203.508797 
L 331.912075 203.725418 
L 327.587925 204.020069 
L 323.263774 204.18418 
L 318.939624 204.332461 
L 314.615473 204.40526 
L 310.291322 204.476262 
L 305.967172 204.448548 
L 301.643021 204.42469 
L 297.318871 204.356942 
L 292.99472 204.367264 
L 288.670569 204.323802 
L 284.346419 204.480795 
L 280.022268 204.364666 
L 275.698118 204.456035 
L 271.373967 204.436162 
L 267.049816 204.570883 
L 262.725666 204.13759 
L 258.401515 204.321719 
L 254.077365 203.971475 
L 249.753214 203.747361 
L 245.429063 203.807647 
L 241.104913 203.449162 
L 236.780762 203.201491 
L 232.456612 203.106783 
L 228.132461 202.921352 
L 223.80831 202.735545 
L 219.48416 202.504477 
L 215.160009 202.171389 
L 210.835859 202.035267 
L 206.511708 201.993832 
L 202.187557 201.953735 
L 197.863407 201.775845 
L 193.539256 201.468466 
L 189.215106 201.333711 
L 184.890955 201.070227 
L 180.566804 200.799413 
L 176.242654 200.524452 
L 171.918503 200.361238 
L 167.594353 199.875726 
L 163.270202 199.624478 
L 158.946051 199.248609 
L 154.621901 198.877606 
L 150.29775 198.555984 
L 145.9736 198.128894 
L 141.649449 197.754871 
L 137.325298 197.378254 
L 133.001148 196.929098 
L 128.676997 196.445174 
L 124.352847 196.086945 
L 120.028696 195.728715 
L 115.704545 195.370486 
z
" clip-path="url(#p248f7dadda)" style="fill: #ffa500; fill-opacity: 0.15"/>
   </g>
   <g id="matplotlib.axis_1">
    <g id="xtick_1">
     <g id="line2d_1">
      <defs>
       <path id="m9c77760306" d="M 0 0 
L 0 3.5 
" style="stroke: #000000; stroke-width: 0.8"/>
      </defs>
      <g>
       <use xlink:href="#m9c77760306" x="115.704545" y="367.2" style="stroke: #000000; stroke-width: 0.8"/>
      </g>
     </g>
     <g id="text_1">
      <!-- 1.0 -->
      <g transform="translate(99.80142 389.396875)scale(0.2 -0.2)">
       <defs>
        <path id="DejaVuSans-31" d="M 794 531 
L 1825 531 
L 1825 4091 
L 703 3866 
L 703 4441 
L 1819 4666 
L 2450 4666 
L 2450 531 
L 3481 531 
L 3481 0 
L 794 0 
L 794 531 
z
" transform="scale(0.015625)"/>
        <path id="DejaVuSans-2e" d="M 684 794 
L 1344 794 
L 1344 0 
L 684 0 
L 684 794 
z
" transform="scale(0.015625)"/>
        <path id="DejaVuSans-30" d="M 2034 4250 
Q 1547 4250 1301 3770 
Q 1056 3291 1056 2328 
Q 1056 1369 1301 889 
Q 1547 409 2034 409 
Q 2525 409 2770 889 
Q 3016 1369 3016 2328 
Q 3016 3291 2770 3770 
Q 2525 4250 2034 4250 
z
M 2034 4750 
Q 2819 4750 3233 4129 
Q 3647 3509 3647 2328 
Q 3647 1150 3233 529 
Q 2819 -91 2034 -91 
Q 1250 -91 836 529 
Q 422 1150 422 2328 
Q 422 3509 836 4129 
Q 1250 4750 2034 4750 
z
" transform="scale(0.015625)"/>
       </defs>
       <use xlink:href="#DejaVuSans-31"/>
       <use xlink:href="#DejaVuSans-2e" x="63.623047"/>
       <use xlink:href="#DejaVuSans-30" x="95.410156"/>
      </g>
     </g>
    </g>
    <g id="xtick_2">
     <g id="line2d_2">
      <g>
       <use xlink:href="#m9c77760306" x="187.05303" y="367.2" style="stroke: #000000; stroke-width: 0.8"/>
      </g>
     </g>
     <g id="text_2">
      <!-- 1.5 -->
      <g transform="translate(171.149905 389.396875)scale(0.2 -0.2)">
       <defs>
        <path id="DejaVuSans-35" d="M 691 4666 
L 3169 4666 
L 3169 4134 
L 1269 4134 
L 1269 2991 
Q 1406 3038 1543 3061 
Q 1681 3084 1819 3084 
Q 2600 3084 3056 2656 
Q 3513 2228 3513 1497 
Q 3513 744 3044 326 
Q 2575 -91 1722 -91 
Q 1428 -91 1123 -41 
Q 819 9 494 109 
L 494 744 
Q 775 591 1075 516 
Q 1375 441 1709 441 
Q 2250 441 2565 725 
Q 2881 1009 2881 1497 
Q 2881 1984 2565 2268 
Q 2250 2553 1709 2553 
Q 1456 2553 1204 2497 
Q 953 2441 691 2322 
L 691 4666 
z
" transform="scale(0.015625)"/>
       </defs>
       <use xlink:href="#DejaVuSans-31"/>
       <use xlink:href="#DejaVuSans-2e" x="63.623047"/>
       <use xlink:href="#DejaVuSans-35" x="95.410156"/>
      </g>
     </g>
    </g>
    <g id="xtick_3">
     <g id="line2d_3">
      <g>
       <use xlink:href="#m9c77760306" x="258.401515" y="367.2" style="stroke: #000000; stroke-width: 0.8"/>
      </g>
     </g>
     <g id="text_3">
      <!-- 2.0 -->
      <g transform="translate(242.49839 389.396875)scale(0.2 -0.2)">
       <defs>
        <path id="DejaVuSans-32" d="M 1228 531 
L 3431 531 
L 3431 0 
L 469 0 
L 469 531 
Q 828 903 1448 1529 
Q 2069 2156 2228 2338 
Q 2531 2678 2651 2914 
Q 2772 3150 2772 3378 
Q 2772 3750 2511 3984 
Q 2250 4219 1831 4219 
Q 1534 4219 1204 4116 
Q 875 4013 500 3803 
L 500 4441 
Q 881 4594 1212 4672 
Q 1544 4750 1819 4750 
Q 2544 4750 2975 4387 
Q 3406 4025 3406 3419 
Q 3406 3131 3298 2873 
Q 3191 2616 2906 2266 
Q 2828 2175 2409 1742 
Q 1991 1309 1228 531 
z
" transform="scale(0.015625)"/>
       </defs>
       <use xlink:href="#DejaVuSans-32"/>
       <use xlink:href="#DejaVuSans-2e" x="63.623047"/>
       <use xlink:href="#DejaVuSans-30" x="95.410156"/>
      </g>
     </g>
    </g>
    <g id="xtick_4">
     <g id="line2d_4">
      <g>
       <use xlink:href="#m9c77760306" x="329.75" y="367.2" style="stroke: #000000; stroke-width: 0.8"/>
      </g>
     </g>
     <g id="text_4">
      <!-- 2.5 -->
      <g transform="translate(313.846875 389.396875)scale(0.2 -0.2)">
       <use xlink:href="#DejaVuSans-32"/>
       <use xlink:href="#DejaVuSans-2e" x="63.623047"/>
       <use xlink:href="#DejaVuSans-35" x="95.410156"/>
      </g>
     </g>
    </g>
    <g id="xtick_5">
     <g id="line2d_5">
      <g>
       <use xlink:href="#m9c77760306" x="401.098485" y="367.2" style="stroke: #000000; stroke-width: 0.8"/>
      </g>
     </g>
     <g id="text_5">
      <!-- 3.0 -->
      <g transform="translate(385.19536 389.396875)scale(0.2 -0.2)">
       <defs>
        <path id="DejaVuSans-33" d="M 2597 2516 
Q 3050 2419 3304 2112 
Q 3559 1806 3559 1356 
Q 3559 666 3084 287 
Q 2609 -91 1734 -91 
Q 1441 -91 1130 -33 
Q 819 25 488 141 
L 488 750 
Q 750 597 1062 519 
Q 1375 441 1716 441 
Q 2309 441 2620 675 
Q 2931 909 2931 1356 
Q 2931 1769 2642 2001 
Q 2353 2234 1838 2234 
L 1294 2234 
L 1294 2753 
L 1863 2753 
Q 2328 2753 2575 2939 
Q 2822 3125 2822 3475 
Q 2822 3834 2567 4026 
Q 2313 4219 1838 4219 
Q 1578 4219 1281 4162 
Q 984 4106 628 3988 
L 628 4550 
Q 988 4650 1302 4700 
Q 1616 4750 1894 4750 
Q 2613 4750 3031 4423 
Q 3450 4097 3450 3541 
Q 3450 3153 3228 2886 
Q 3006 2619 2597 2516 
z
" transform="scale(0.015625)"/>
       </defs>
       <use xlink:href="#DejaVuSans-33"/>
       <use xlink:href="#DejaVuSans-2e" x="63.623047"/>
       <use xlink:href="#DejaVuSans-30" x="95.410156"/>
      </g>
     </g>
    </g>
    <g id="xtick_6">
     <g id="line2d_6">
      <g>
       <use xlink:href="#m9c77760306" x="472.44697" y="367.2" style="stroke: #000000; stroke-width: 0.8"/>
      </g>
     </g>
     <g id="text_6">
      <!-- 3.5 -->
      <g transform="translate(456.543845 389.396875)scale(0.2 -0.2)">
       <use xlink:href="#DejaVuSans-33"/>
       <use xlink:href="#DejaVuSans-2e" x="63.623047"/>
       <use xlink:href="#DejaVuSans-35" x="95.410156"/>
      </g>
     </g>
    </g>
    <g id="xtick_7">
     <g id="line2d_7">
      <g>
       <use xlink:href="#m9c77760306" x="543.795455" y="367.2" style="stroke: #000000; stroke-width: 0.8"/>
      </g>
     </g>
     <g id="text_7">
      <!-- 4.0 -->
      <g transform="translate(527.89233 389.396875)scale(0.2 -0.2)">
       <defs>
        <path id="DejaVuSans-34" d="M 2419 4116 
L 825 1625 
L 2419 1625 
L 2419 4116 
z
M 2253 4666 
L 3047 4666 
L 3047 1625 
L 3713 1625 
L 3713 1100 
L 3047 1100 
L 3047 0 
L 2419 0 
L 2419 1100 
L 313 1100 
L 313 1709 
L 2253 4666 
z
" transform="scale(0.015625)"/>
       </defs>
       <use xlink:href="#DejaVuSans-34"/>
       <use xlink:href="#DejaVuSans-2e" x="63.623047"/>
       <use xlink:href="#DejaVuSans-30" x="95.410156"/>
      </g>
     </g>
    </g>
    <g id="text_8">
     <!-- IPT Diversity -->
     <g transform="translate(254.44625 415.7925)scale(0.24 -0.24)">
      <defs>
       <path id="DejaVuSans-49" d="M 628 4666 
L 1259 4666 
L 1259 0 
L 628 0 
L 628 4666 
z
" transform="scale(0.015625)"/>
       <path id="DejaVuSans-50" d="M 1259 4147 
L 1259 2394 
L 2053 2394 
Q 2494 2394 2734 2622 
Q 2975 2850 2975 3272 
Q 2975 3691 2734 3919 
Q 2494 4147 2053 4147 
L 1259 4147 
z
M 628 4666 
L 2053 4666 
Q 2838 4666 3239 4311 
Q 3641 3956 3641 3272 
Q 3641 2581 3239 2228 
Q 2838 1875 2053 1875 
L 1259 1875 
L 1259 0 
L 628 0 
L 628 4666 
z
" transform="scale(0.015625)"/>
       <path id="DejaVuSans-54" d="M -19 4666 
L 3928 4666 
L 3928 4134 
L 2272 4134 
L 2272 0 
L 1638 0 
L 1638 4134 
L -19 4134 
L -19 4666 
z
" transform="scale(0.015625)"/>
       <path id="DejaVuSans-20" transform="scale(0.015625)"/>
       <path id="DejaVuSans-44" d="M 1259 4147 
L 1259 519 
L 2022 519 
Q 2988 519 3436 956 
Q 3884 1394 3884 2338 
Q 3884 3275 3436 3711 
Q 2988 4147 2022 4147 
L 1259 4147 
z
M 628 4666 
L 1925 4666 
Q 3281 4666 3915 4102 
Q 4550 3538 4550 2338 
Q 4550 1131 3912 565 
Q 3275 0 1925 0 
L 628 0 
L 628 4666 
z
" transform="scale(0.015625)"/>
       <path id="DejaVuSans-69" d="M 603 3500 
L 1178 3500 
L 1178 0 
L 603 0 
L 603 3500 
z
M 603 4863 
L 1178 4863 
L 1178 4134 
L 603 4134 
L 603 4863 
z
" transform="scale(0.015625)"/>
       <path id="DejaVuSans-76" d="M 191 3500 
L 800 3500 
L 1894 563 
L 2988 3500 
L 3597 3500 
L 2284 0 
L 1503 0 
L 191 3500 
z
" transform="scale(0.015625)"/>
       <path id="DejaVuSans-65" d="M 3597 1894 
L 3597 1613 
L 953 1613 
Q 991 1019 1311 708 
Q 1631 397 2203 397 
Q 2534 397 2845 478 
Q 3156 559 3463 722 
L 3463 178 
Q 3153 47 2828 -22 
Q 2503 -91 2169 -91 
Q 1331 -91 842 396 
Q 353 884 353 1716 
Q 353 2575 817 3079 
Q 1281 3584 2069 3584 
Q 2775 3584 3186 3129 
Q 3597 2675 3597 1894 
z
M 3022 2063 
Q 3016 2534 2758 2815 
Q 2500 3097 2075 3097 
Q 1594 3097 1305 2825 
Q 1016 2553 972 2059 
L 3022 2063 
z
" transform="scale(0.015625)"/>
       <path id="DejaVuSans-72" d="M 2631 2963 
Q 2534 3019 2420 3045 
Q 2306 3072 2169 3072 
Q 1681 3072 1420 2755 
Q 1159 2438 1159 1844 
L 1159 0 
L 581 0 
L 581 3500 
L 1159 3500 
L 1159 2956 
Q 1341 3275 1631 3429 
Q 1922 3584 2338 3584 
Q 2397 3584 2469 3576 
Q 2541 3569 2628 3553 
L 2631 2963 
z
" transform="scale(0.015625)"/>
       <path id="DejaVuSans-73" d="M 2834 3397 
L 2834 2853 
Q 2591 2978 2328 3040 
Q 2066 3103 1784 3103 
Q 1356 3103 1142 2972 
Q 928 2841 928 2578 
Q 928 2378 1081 2264 
Q 1234 2150 1697 2047 
L 1894 2003 
Q 2506 1872 2764 1633 
Q 3022 1394 3022 966 
Q 3022 478 2636 193 
Q 2250 -91 1575 -91 
Q 1294 -91 989 -36 
Q 684 19 347 128 
L 347 722 
Q 666 556 975 473 
Q 1284 391 1588 391 
Q 1994 391 2212 530 
Q 2431 669 2431 922 
Q 2431 1156 2273 1281 
Q 2116 1406 1581 1522 
L 1381 1569 
Q 847 1681 609 1914 
Q 372 2147 372 2553 
Q 372 3047 722 3315 
Q 1072 3584 1716 3584 
Q 2034 3584 2315 3537 
Q 2597 3491 2834 3397 
z
" transform="scale(0.015625)"/>
       <path id="DejaVuSans-74" d="M 1172 4494 
L 1172 3500 
L 2356 3500 
L 2356 3053 
L 1172 3053 
L 1172 1153 
Q 1172 725 1289 603 
Q 1406 481 1766 481 
L 2356 481 
L 2356 0 
L 1766 0 
Q 1100 0 847 248 
Q 594 497 594 1153 
L 594 3053 
L 172 3053 
L 172 3500 
L 594 3500 
L 594 4494 
L 1172 4494 
z
" transform="scale(0.015625)"/>
       <path id="DejaVuSans-79" d="M 2059 -325 
Q 1816 -950 1584 -1140 
Q 1353 -1331 966 -1331 
L 506 -1331 
L 506 -850 
L 844 -850 
Q 1081 -850 1212 -737 
Q 1344 -625 1503 -206 
L 1606 56 
L 191 3500 
L 800 3500 
L 1894 763 
L 2988 3500 
L 3597 3500 
L 2059 -325 
z
" transform="scale(0.015625)"/>
      </defs>
      <use xlink:href="#DejaVuSans-49"/>
      <use xlink:href="#DejaVuSans-50" x="29.492188"/>
      <use xlink:href="#DejaVuSans-54" x="89.794922"/>
      <use xlink:href="#DejaVuSans-20" x="150.878906"/>
      <use xlink:href="#DejaVuSans-44" x="182.666016"/>
      <use xlink:href="#DejaVuSans-69" x="259.667969"/>
      <use xlink:href="#DejaVuSans-76" x="287.451172"/>
      <use xlink:href="#DejaVuSans-65" x="346.630859"/>
      <use xlink:href="#DejaVuSans-72" x="408.154297"/>
      <use xlink:href="#DejaVuSans-73" x="449.267578"/>
      <use xlink:href="#DejaVuSans-69" x="501.367188"/>
      <use xlink:href="#DejaVuSans-74" x="529.150391"/>
      <use xlink:href="#DejaVuSans-79" x="568.359375"/>
     </g>
    </g>
   </g>
   <g id="matplotlib.axis_2">
    <g id="ytick_1">
     <g id="line2d_8">
      <defs>
       <path id="mdc02c903c9" d="M 0 0 
L -3.5 0 
" style="stroke: #000000; stroke-width: 0.8"/>
      </defs>
      <g>
       <use xlink:href="#mdc02c903c9" x="94.3" y="328.397589" style="stroke: #000000; stroke-width: 0.8"/>
      </g>
     </g>
     <g id="text_9">
      <!-- −0.4 -->
      <g transform="translate(38.734375 335.996027)scale(0.2 -0.2)">
       <defs>
        <path id="DejaVuSans-2212" d="M 678 2272 
L 4684 2272 
L 4684 1741 
L 678 1741 
L 678 2272 
z
" transform="scale(0.015625)"/>
       </defs>
       <use xlink:href="#DejaVuSans-2212"/>
       <use xlink:href="#DejaVuSans-30" x="83.789062"/>
       <use xlink:href="#DejaVuSans-2e" x="147.412109"/>
       <use xlink:href="#DejaVuSans-34" x="179.199219"/>
      </g>
     </g>
    </g>
    <g id="ytick_2">
     <g id="line2d_9">
      <g>
       <use xlink:href="#mdc02c903c9" x="94.3" y="275.3551" style="stroke: #000000; stroke-width: 0.8"/>
      </g>
     </g>
     <g id="text_10">
      <!-- −0.2 -->
      <g transform="translate(38.734375 282.953537)scale(0.2 -0.2)">
       <use xlink:href="#DejaVuSans-2212"/>
       <use xlink:href="#DejaVuSans-30" x="83.789062"/>
       <use xlink:href="#DejaVuSans-2e" x="147.412109"/>
       <use xlink:href="#DejaVuSans-32" x="179.199219"/>
      </g>
     </g>
    </g>
    <g id="ytick_3">
     <g id="line2d_10">
      <g>
       <use xlink:href="#mdc02c903c9" x="94.3" y="222.31261" style="stroke: #000000; stroke-width: 0.8"/>
      </g>
     </g>
     <g id="text_11">
      <!-- 0.0 -->
      <g transform="translate(55.49375 229.911048)scale(0.2 -0.2)">
       <use xlink:href="#DejaVuSans-30"/>
       <use xlink:href="#DejaVuSans-2e" x="63.623047"/>
       <use xlink:href="#DejaVuSans-30" x="95.410156"/>
      </g>
     </g>
    </g>
    <g id="ytick_4">
     <g id="line2d_11">
      <g>
       <use xlink:href="#mdc02c903c9" x="94.3" y="169.270121" style="stroke: #000000; stroke-width: 0.8"/>
      </g>
     </g>
     <g id="text_12">
      <!-- 0.2 -->
      <g transform="translate(55.49375 176.868558)scale(0.2 -0.2)">
       <use xlink:href="#DejaVuSans-30"/>
       <use xlink:href="#DejaVuSans-2e" x="63.623047"/>
       <use xlink:href="#DejaVuSans-32" x="95.410156"/>
      </g>
     </g>
    </g>
    <g id="ytick_5">
     <g id="line2d_12">
      <g>
       <use xlink:href="#mdc02c903c9" x="94.3" y="116.227631" style="stroke: #000000; stroke-width: 0.8"/>
      </g>
     </g>
     <g id="text_13">
      <!-- 0.4 -->
      <g transform="translate(55.49375 123.826069)scale(0.2 -0.2)">
       <use xlink:href="#DejaVuSans-30"/>
       <use xlink:href="#DejaVuSans-2e" x="63.623047"/>
       <use xlink:href="#DejaVuSans-34" x="95.410156"/>
      </g>
     </g>
    </g>
    <g id="ytick_6">
     <g id="line2d_13">
      <g>
       <use xlink:href="#mdc02c903c9" x="94.3" y="63.185142" style="stroke: #000000; stroke-width: 0.8"/>
      </g>
     </g>
     <g id="text_14">
      <!-- 0.6 -->
      <g transform="translate(55.49375 70.783579)scale(0.2 -0.2)">
       <defs>
        <path id="DejaVuSans-36" d="M 2113 2584 
Q 1688 2584 1439 2293 
Q 1191 2003 1191 1497 
Q 1191 994 1439 701 
Q 1688 409 2113 409 
Q 2538 409 2786 701 
Q 3034 994 3034 1497 
Q 3034 2003 2786 2293 
Q 2538 2584 2113 2584 
z
M 3366 4563 
L 3366 3988 
Q 3128 4100 2886 4159 
Q 2644 4219 2406 4219 
Q 1781 4219 1451 3797 
Q 1122 3375 1075 2522 
Q 1259 2794 1537 2939 
Q 1816 3084 2150 3084 
Q 2853 3084 3261 2657 
Q 3669 2231 3669 1497 
Q 3669 778 3244 343 
Q 2819 -91 2113 -91 
Q 1303 -91 875 529 
Q 447 1150 447 2328 
Q 447 3434 972 4092 
Q 1497 4750 2381 4750 
Q 2619 4750 2861 4703 
Q 3103 4656 3366 4563 
z
" transform="scale(0.015625)"/>
       </defs>
       <use xlink:href="#DejaVuSans-30"/>
       <use xlink:href="#DejaVuSans-2e" x="63.623047"/>
       <use xlink:href="#DejaVuSans-36" x="95.410156"/>
      </g>
     </g>
    </g>
    <g id="text_15">
     <!-- Learning Rate -->
     <g transform="translate(29.743125 272.4225)rotate(-90)scale(0.24 -0.24)">
      <defs>
       <path id="DejaVuSans-4c" d="M 628 4666 
L 1259 4666 
L 1259 531 
L 3531 531 
L 3531 0 
L 628 0 
L 628 4666 
z
" transform="scale(0.015625)"/>
       <path id="DejaVuSans-61" d="M 2194 1759 
Q 1497 1759 1228 1600 
Q 959 1441 959 1056 
Q 959 750 1161 570 
Q 1363 391 1709 391 
Q 2188 391 2477 730 
Q 2766 1069 2766 1631 
L 2766 1759 
L 2194 1759 
z
M 3341 1997 
L 3341 0 
L 2766 0 
L 2766 531 
Q 2569 213 2275 61 
Q 1981 -91 1556 -91 
Q 1019 -91 701 211 
Q 384 513 384 1019 
Q 384 1609 779 1909 
Q 1175 2209 1959 2209 
L 2766 2209 
L 2766 2266 
Q 2766 2663 2505 2880 
Q 2244 3097 1772 3097 
Q 1472 3097 1187 3025 
Q 903 2953 641 2809 
L 641 3341 
Q 956 3463 1253 3523 
Q 1550 3584 1831 3584 
Q 2591 3584 2966 3190 
Q 3341 2797 3341 1997 
z
" transform="scale(0.015625)"/>
       <path id="DejaVuSans-6e" d="M 3513 2113 
L 3513 0 
L 2938 0 
L 2938 2094 
Q 2938 2591 2744 2837 
Q 2550 3084 2163 3084 
Q 1697 3084 1428 2787 
Q 1159 2491 1159 1978 
L 1159 0 
L 581 0 
L 581 3500 
L 1159 3500 
L 1159 2956 
Q 1366 3272 1645 3428 
Q 1925 3584 2291 3584 
Q 2894 3584 3203 3211 
Q 3513 2838 3513 2113 
z
" transform="scale(0.015625)"/>
       <path id="DejaVuSans-67" d="M 2906 1791 
Q 2906 2416 2648 2759 
Q 2391 3103 1925 3103 
Q 1463 3103 1205 2759 
Q 947 2416 947 1791 
Q 947 1169 1205 825 
Q 1463 481 1925 481 
Q 2391 481 2648 825 
Q 2906 1169 2906 1791 
z
M 3481 434 
Q 3481 -459 3084 -895 
Q 2688 -1331 1869 -1331 
Q 1566 -1331 1297 -1286 
Q 1028 -1241 775 -1147 
L 775 -588 
Q 1028 -725 1275 -790 
Q 1522 -856 1778 -856 
Q 2344 -856 2625 -561 
Q 2906 -266 2906 331 
L 2906 616 
Q 2728 306 2450 153 
Q 2172 0 1784 0 
Q 1141 0 747 490 
Q 353 981 353 1791 
Q 353 2603 747 3093 
Q 1141 3584 1784 3584 
Q 2172 3584 2450 3431 
Q 2728 3278 2906 2969 
L 2906 3500 
L 3481 3500 
L 3481 434 
z
" transform="scale(0.015625)"/>
       <path id="DejaVuSans-52" d="M 2841 2188 
Q 3044 2119 3236 1894 
Q 3428 1669 3622 1275 
L 4263 0 
L 3584 0 
L 2988 1197 
Q 2756 1666 2539 1819 
Q 2322 1972 1947 1972 
L 1259 1972 
L 1259 0 
L 628 0 
L 628 4666 
L 2053 4666 
Q 2853 4666 3247 4331 
Q 3641 3997 3641 3322 
Q 3641 2881 3436 2590 
Q 3231 2300 2841 2188 
z
M 1259 4147 
L 1259 2491 
L 2053 2491 
Q 2509 2491 2742 2702 
Q 2975 2913 2975 3322 
Q 2975 3731 2742 3939 
Q 2509 4147 2053 4147 
L 1259 4147 
z
" transform="scale(0.015625)"/>
      </defs>
      <use xlink:href="#DejaVuSans-4c"/>
      <use xlink:href="#DejaVuSans-65" x="53.962891"/>
      <use xlink:href="#DejaVuSans-61" x="115.486328"/>
      <use xlink:href="#DejaVuSans-72" x="176.765625"/>
      <use xlink:href="#DejaVuSans-6e" x="216.128906"/>
      <use xlink:href="#DejaVuSans-69" x="279.507812"/>
      <use xlink:href="#DejaVuSans-6e" x="307.291016"/>
      <use xlink:href="#DejaVuSans-67" x="370.669922"/>
      <use xlink:href="#DejaVuSans-20" x="434.146484"/>
      <use xlink:href="#DejaVuSans-52" x="465.933594"/>
      <use xlink:href="#DejaVuSans-61" x="533.166016"/>
      <use xlink:href="#DejaVuSans-74" x="594.445312"/>
      <use xlink:href="#DejaVuSans-65" x="633.654297"/>
     </g>
    </g>
   </g>
   <g id="line2d_14">
    <path d="M 115.704545 196.844851 
L 120.028696 197.252909 
L 124.352847 197.660967 
L 128.676997 198.069026 
L 133.001148 198.477084 
L 137.325298 198.885142 
L 141.649449 199.2932 
L 145.9736 199.701258 
L 150.29775 200.109317 
L 154.621901 200.517375 
L 158.946051 200.925433 
L 163.270202 201.333491 
L 167.594353 201.74155 
L 171.918503 202.149608 
L 176.242654 202.557666 
L 180.566804 202.965724 
L 184.890955 203.373783 
L 189.215106 203.781841 
L 193.539256 204.189899 
L 197.863407 204.597957 
L 202.187557 205.006015 
L 206.511708 205.414074 
L 210.835859 205.822132 
L 215.160009 206.23019 
L 219.48416 206.638248 
L 223.80831 207.046307 
L 228.132461 207.454365 
L 232.456612 207.862423 
L 236.780762 208.270481 
L 241.104913 208.678539 
L 245.429063 209.086598 
L 249.753214 209.494656 
L 254.077365 209.902714 
L 258.401515 210.310772 
L 262.725666 210.718831 
L 267.049816 211.126889 
L 271.373967 211.534947 
L 275.698118 211.943005 
L 280.022268 212.351063 
L 284.346419 212.759122 
L 288.670569 213.16718 
L 292.99472 213.575238 
L 297.318871 213.983296 
L 301.643021 214.391355 
L 305.967172 214.799413 
L 310.291322 215.207471 
L 314.615473 215.615529 
L 318.939624 216.023588 
L 323.263774 216.431646 
L 327.587925 216.839704 
L 331.912075 217.247762 
L 336.236226 217.65582 
L 340.560376 218.063879 
L 344.884527 218.471937 
L 349.208678 218.879995 
L 353.532828 219.288053 
L 357.856979 219.696112 
L 362.181129 220.10417 
L 366.50528 220.512228 
L 370.829431 220.920286 
L 375.153581 221.328344 
L 379.477732 221.736403 
L 383.801882 222.144461 
L 388.126033 222.552519 
L 392.450184 222.960577 
L 396.774334 223.368636 
L 401.098485 223.776694 
L 405.422635 224.184752 
L 409.746786 224.59281 
L 414.070937 225.000868 
L 418.395087 225.408927 
L 422.719238 225.816985 
L 427.043388 226.225043 
L 431.367539 226.633101 
L 435.69169 227.04116 
L 440.01584 227.449218 
L 444.339991 227.857276 
L 448.664141 228.265334 
L 452.988292 228.673393 
L 457.312443 229.081451 
L 461.636593 229.489509 
L 465.960744 229.897567 
L 470.284894 230.305625 
L 474.609045 230.713684 
L 478.933196 231.121742 
L 483.257346 231.5298 
L 487.581497 231.937858 
L 491.905647 232.345917 
L 496.229798 232.753975 
L 500.553949 233.162033 
L 504.878099 233.570091 
L 509.20225 233.978149 
L 513.5264 234.386208 
L 517.850551 234.794266 
L 522.174702 235.202324 
L 526.498852 235.610382 
L 530.823003 236.018441 
L 535.147153 236.426499 
L 539.471304 236.834557 
L 543.795455 237.242615 
" clip-path="url(#p248f7dadda)" style="fill: none; stroke: #0000ff; stroke-width: 2.25; stroke-linecap: square"/>
   </g>
   <g id="line2d_15">
    <path d="M 115.704545 213.381409 
L 120.028696 213.485372 
L 124.352847 213.589335 
L 128.676997 213.693298 
L 133.001148 213.797262 
L 137.325298 213.901225 
L 141.649449 214.005188 
L 145.9736 214.109151 
L 150.29775 214.213115 
L 154.621901 214.317078 
L 158.946051 214.421041 
L 163.270202 214.525004 
L 167.594353 214.628968 
L 171.918503 214.732931 
L 176.242654 214.836894 
L 180.566804 214.940857 
L 184.890955 215.044821 
L 189.215106 215.148784 
L 193.539256 215.252747 
L 197.863407 215.35671 
L 202.187557 215.460674 
L 206.511708 215.564637 
L 210.835859 215.6686 
L 215.160009 215.772564 
L 219.48416 215.876527 
L 223.80831 215.98049 
L 228.132461 216.084453 
L 232.456612 216.188417 
L 236.780762 216.29238 
L 241.104913 216.396343 
L 245.429063 216.500306 
L 249.753214 216.60427 
L 254.077365 216.708233 
L 258.401515 216.812196 
L 262.725666 216.916159 
L 267.049816 217.020123 
L 271.373967 217.124086 
L 275.698118 217.228049 
L 280.022268 217.332012 
L 284.346419 217.435976 
L 288.670569 217.539939 
L 292.99472 217.643902 
L 297.318871 217.747865 
L 301.643021 217.851829 
L 305.967172 217.955792 
L 310.291322 218.059755 
L 314.615473 218.163719 
L 318.939624 218.267682 
L 323.263774 218.371645 
L 327.587925 218.475608 
L 331.912075 218.579572 
L 336.236226 218.683535 
L 340.560376 218.787498 
L 344.884527 218.891461 
L 349.208678 218.995425 
L 353.532828 219.099388 
L 357.856979 219.203351 
L 362.181129 219.307314 
L 366.50528 219.411278 
L 370.829431 219.515241 
L 375.153581 219.619204 
L 379.477732 219.723167 
L 383.801882 219.827131 
L 388.126033 219.931094 
L 392.450184 220.035057 
L 396.774334 220.13902 
L 401.098485 220.242984 
L 405.422635 220.346947 
L 409.746786 220.45091 
L 414.070937 220.554874 
L 418.395087 220.658837 
L 422.719238 220.7628 
L 427.043388 220.866763 
L 431.367539 220.970727 
L 435.69169 221.07469 
L 440.01584 221.178653 
L 444.339991 221.282616 
L 448.664141 221.38658 
L 452.988292 221.490543 
L 457.312443 221.594506 
L 461.636593 221.698469 
L 465.960744 221.802433 
L 470.284894 221.906396 
L 474.609045 222.010359 
L 478.933196 222.114322 
L 483.257346 222.218286 
L 487.581497 222.322249 
L 491.905647 222.426212 
L 496.229798 222.530175 
L 500.553949 222.634139 
L 504.878099 222.738102 
L 509.20225 222.842065 
L 513.5264 222.946028 
L 517.850551 223.049992 
L 522.174702 223.153955 
L 526.498852 223.257918 
L 530.823003 223.361882 
L 535.147153 223.465845 
L 539.471304 223.569808 
L 543.795455 223.673771 
" clip-path="url(#p248f7dadda)" style="fill: none; stroke: #ffa500; stroke-width: 2.25; stroke-linecap: square"/>
   </g>
   <g id="patch_3">
    <path d="M 94.3 367.2 
L 94.3 10.8 
" style="fill: none; stroke: #000000; stroke-width: 0.8; stroke-linejoin: miter; stroke-linecap: square"/>
   </g>
   <g id="patch_4">
    <path d="M 565.2 367.2 
L 565.2 10.8 
" style="fill: none; stroke: #000000; stroke-width: 0.8; stroke-linejoin: miter; stroke-linecap: square"/>
   </g>
   <g id="patch_5">
    <path d="M 94.3 367.2 
L 565.2 367.2 
" style="fill: none; stroke: #000000; stroke-width: 0.8; stroke-linejoin: miter; stroke-linecap: square"/>
   </g>
   <g id="patch_6">
    <path d="M 94.3 10.8 
L 565.2 10.8 
" style="fill: none; stroke: #000000; stroke-width: 0.8; stroke-linejoin: miter; stroke-linecap: square"/>
   </g>
   <g id="legend_1">
    <g id="patch_7">
     <path d="M 302.070937 78.04125 
L 552.6 78.04125 
Q 556.2 78.04125 556.2 74.44125 
L 556.2 23.4 
Q 556.2 19.8 552.6 19.8 
L 302.070937 19.8 
Q 298.470937 19.8 298.470937 23.4 
L 298.470937 74.44125 
Q 298.470937 78.04125 302.070937 78.04125 
z
" style="fill: #ffffff; opacity: 0.8; stroke: #cccccc; stroke-linejoin: miter"/>
    </g>
    <g id="PathCollection_3">
     <g>
      <use xlink:href="#mc7ab8606c3" x="323.670937" y="35.952188" style="fill: #0000ff; stroke: #ffffff; stroke-width: 0.48"/>
     </g>
    </g>
    <g id="text_16">
     <!-- Childhood Trauma -->
     <g transform="translate(356.070937 40.677188)scale(0.18 -0.18)">
      <defs>
       <path id="DejaVuSans-43" d="M 4122 4306 
L 4122 3641 
Q 3803 3938 3442 4084 
Q 3081 4231 2675 4231 
Q 1875 4231 1450 3742 
Q 1025 3253 1025 2328 
Q 1025 1406 1450 917 
Q 1875 428 2675 428 
Q 3081 428 3442 575 
Q 3803 722 4122 1019 
L 4122 359 
Q 3791 134 3420 21 
Q 3050 -91 2638 -91 
Q 1578 -91 968 557 
Q 359 1206 359 2328 
Q 359 3453 968 4101 
Q 1578 4750 2638 4750 
Q 3056 4750 3426 4639 
Q 3797 4528 4122 4306 
z
" transform="scale(0.015625)"/>
       <path id="DejaVuSans-68" d="M 3513 2113 
L 3513 0 
L 2938 0 
L 2938 2094 
Q 2938 2591 2744 2837 
Q 2550 3084 2163 3084 
Q 1697 3084 1428 2787 
Q 1159 2491 1159 1978 
L 1159 0 
L 581 0 
L 581 4863 
L 1159 4863 
L 1159 2956 
Q 1366 3272 1645 3428 
Q 1925 3584 2291 3584 
Q 2894 3584 3203 3211 
Q 3513 2838 3513 2113 
z
" transform="scale(0.015625)"/>
       <path id="DejaVuSans-6c" d="M 603 4863 
L 1178 4863 
L 1178 0 
L 603 0 
L 603 4863 
z
" transform="scale(0.015625)"/>
       <path id="DejaVuSans-64" d="M 2906 2969 
L 2906 4863 
L 3481 4863 
L 3481 0 
L 2906 0 
L 2906 525 
Q 2725 213 2448 61 
Q 2172 -91 1784 -91 
Q 1150 -91 751 415 
Q 353 922 353 1747 
Q 353 2572 751 3078 
Q 1150 3584 1784 3584 
Q 2172 3584 2448 3432 
Q 2725 3281 2906 2969 
z
M 947 1747 
Q 947 1113 1208 752 
Q 1469 391 1925 391 
Q 2381 391 2643 752 
Q 2906 1113 2906 1747 
Q 2906 2381 2643 2742 
Q 2381 3103 1925 3103 
Q 1469 3103 1208 2742 
Q 947 2381 947 1747 
z
" transform="scale(0.015625)"/>
       <path id="DejaVuSans-6f" d="M 1959 3097 
Q 1497 3097 1228 2736 
Q 959 2375 959 1747 
Q 959 1119 1226 758 
Q 1494 397 1959 397 
Q 2419 397 2687 759 
Q 2956 1122 2956 1747 
Q 2956 2369 2687 2733 
Q 2419 3097 1959 3097 
z
M 1959 3584 
Q 2709 3584 3137 3096 
Q 3566 2609 3566 1747 
Q 3566 888 3137 398 
Q 2709 -91 1959 -91 
Q 1206 -91 779 398 
Q 353 888 353 1747 
Q 353 2609 779 3096 
Q 1206 3584 1959 3584 
z
" transform="scale(0.015625)"/>
       <path id="DejaVuSans-75" d="M 544 1381 
L 544 3500 
L 1119 3500 
L 1119 1403 
Q 1119 906 1312 657 
Q 1506 409 1894 409 
Q 2359 409 2629 706 
Q 2900 1003 2900 1516 
L 2900 3500 
L 3475 3500 
L 3475 0 
L 2900 0 
L 2900 538 
Q 2691 219 2414 64 
Q 2138 -91 1772 -91 
Q 1169 -91 856 284 
Q 544 659 544 1381 
z
M 1991 3584 
L 1991 3584 
z
" transform="scale(0.015625)"/>
       <path id="DejaVuSans-6d" d="M 3328 2828 
Q 3544 3216 3844 3400 
Q 4144 3584 4550 3584 
Q 5097 3584 5394 3201 
Q 5691 2819 5691 2113 
L 5691 0 
L 5113 0 
L 5113 2094 
Q 5113 2597 4934 2840 
Q 4756 3084 4391 3084 
Q 3944 3084 3684 2787 
Q 3425 2491 3425 1978 
L 3425 0 
L 2847 0 
L 2847 2094 
Q 2847 2600 2669 2842 
Q 2491 3084 2119 3084 
Q 1678 3084 1418 2786 
Q 1159 2488 1159 1978 
L 1159 0 
L 581 0 
L 581 3500 
L 1159 3500 
L 1159 2956 
Q 1356 3278 1631 3431 
Q 1906 3584 2284 3584 
Q 2666 3584 2933 3390 
Q 3200 3197 3328 2828 
z
" transform="scale(0.015625)"/>
      </defs>
      <use xlink:href="#DejaVuSans-43"/>
      <use xlink:href="#DejaVuSans-68" x="69.824219"/>
      <use xlink:href="#DejaVuSans-69" x="133.203125"/>
      <use xlink:href="#DejaVuSans-6c" x="160.986328"/>
      <use xlink:href="#DejaVuSans-64" x="188.769531"/>
      <use xlink:href="#DejaVuSans-68" x="252.246094"/>
      <use xlink:href="#DejaVuSans-6f" x="315.625"/>
      <use xlink:href="#DejaVuSans-6f" x="376.806641"/>
      <use xlink:href="#DejaVuSans-64" x="437.988281"/>
      <use xlink:href="#DejaVuSans-20" x="501.464844"/>
      <use xlink:href="#DejaVuSans-54" x="533.251953"/>
      <use xlink:href="#DejaVuSans-72" x="579.585938"/>
      <use xlink:href="#DejaVuSans-61" x="620.699219"/>
      <use xlink:href="#DejaVuSans-75" x="681.978516"/>
      <use xlink:href="#DejaVuSans-6d" x="745.357422"/>
      <use xlink:href="#DejaVuSans-61" x="842.769531"/>
     </g>
    </g>
    <g id="PathCollection_4">
     <g>
      <use xlink:href="#m1b55d6ce2a" x="323.670937" y="62.372812" style="fill: #ffa500; stroke: #ffffff; stroke-width: 0.48"/>
     </g>
    </g>
    <g id="text_17">
     <!-- No Childhood Trauma -->
     <g transform="translate(356.070937 67.097812)scale(0.18 -0.18)">
      <defs>
       <path id="DejaVuSans-4e" d="M 628 4666 
L 1478 4666 
L 3547 763 
L 3547 4666 
L 4159 4666 
L 4159 0 
L 3309 0 
L 1241 3903 
L 1241 0 
L 628 0 
L 628 4666 
z
" transform="scale(0.015625)"/>
      </defs>
      <use xlink:href="#DejaVuSans-4e"/>
      <use xlink:href="#DejaVuSans-6f" x="74.804688"/>
      <use xlink:href="#DejaVuSans-20" x="135.986328"/>
      <use xlink:href="#DejaVuSans-43" x="167.773438"/>
      <use xlink:href="#DejaVuSans-68" x="237.597656"/>
      <use xlink:href="#DejaVuSans-69" x="300.976562"/>
      <use xlink:href="#DejaVuSans-6c" x="328.759766"/>
      <use xlink:href="#DejaVuSans-64" x="356.542969"/>
      <use xlink:href="#DejaVuSans-68" x="420.019531"/>
      <use xlink:href="#DejaVuSans-6f" x="483.398438"/>
      <use xlink:href="#DejaVuSans-6f" x="544.580078"/>
      <use xlink:href="#DejaVuSans-64" x="605.761719"/>
      <use xlink:href="#DejaVuSans-20" x="669.238281"/>
      <use xlink:href="#DejaVuSans-54" x="701.025391"/>
      <use xlink:href="#DejaVuSans-72" x="747.359375"/>
      <use xlink:href="#DejaVuSans-61" x="788.472656"/>
      <use xlink:href="#DejaVuSans-75" x="849.751953"/>
      <use xlink:href="#DejaVuSans-6d" x="913.130859"/>
      <use xlink:href="#DejaVuSans-61" x="1010.542969"/>
     </g>
    </g>
   </g>
  </g>
 </g>
 <defs>
  <clipPath id="p248f7dadda">
   <rect x="94.3" y="10.8" width="470.9" height="356.4"/>
  </clipPath>
 </defs>
</svg>
